<svg xmlns="http://www.w3.org/2000/svg" width="193" height="193" viewBox="0 0 193 193">
  <defs>
    <linearGradient id="icon-cors-a" x1="50%" x2="50%" y1="0%" y2="98.884%">
      <stop offset="0%" stop-color="#FFAEAE"/>
      <stop offset="100%" stop-color="#FF5050"/>
    </linearGradient>
  </defs>
  <path fill="url(#icon-cors-a)" fill-rule="evenodd" d="M212,64 C216.418278,64 220,67.581722 220,72 L220,120 L220.014431,119.999475 C220.263404,124.296143 223.703857,127.736596 228.000525,127.985569 L228,128 L228.436041,127.999764 C228.457342,127.999921 228.478662,128 228.5,128 L228.564,127.999 L276,128 C280.418278,128 284,131.581722 284,136 L284,185 C284,189.418278 280.418278,193 276,193 L228,193 L228.000525,193.014431 C223.70419,193.263385 220.263936,196.703324 220.014489,200.999527 L219.999,201 L220,249 C220,253.418278 216.418278,257 212,257 L163,257 C158.581722,257 155,253.418278 155,249 L154.999763,201.56421 C154.999921,201.542825 155,201.521422 155,201.5 L154.999,201.436 L154.999,201 L154.985511,200.999527 C154.736083,196.703657 151.296343,193.263917 147.000473,193.014489 L147,193 L99,193 C94.581722,193 91,189.418278 91,185 L91,136 C91,131.581722 94.581722,128 99,128 L146.436041,127.999764 C146.457342,127.999921 146.478662,128 146.5,128 L146.564,127.999 L147,128 L147.000473,127.985511 C151.296676,127.736064 154.736615,124.29581 154.985569,119.999475 L154.999,120 L154.999763,119.56421 C154.999921,119.542825 155,119.521422 155,119.5 L154.999,119.436 L155,72 C155,67.581722 158.581722,64 163,64 L212,64 Z" transform="translate(-91 -64)"/>
</svg>
